Coordinates
version=1
nRows=14
nColumns=40
inDegrees=yes

Units are S.I. units (second, meters, Newtons, ...)
Angles are in degrees.

endheader
time	pelvis_tilt	pelvis_list	pelvis_rotation	pelvis_tx	pelvis_ty	pelvis_tz	hip_flexion_r	hip_adduction_r	hip_rotation_r	knee_angle_r	knee_angle_r_beta	ankle_angle_r	subtalar_angle_r	mtp_angle_r	hip_flexion_l	hip_adduction_l	hip_rotation_l	knee_angle_l	knee_angle_l_beta	ankle_angle_l	subtalar_angle_l	mtp_angle_l	lumbar_extension	lumbar_bending	lumbar_rotation	arm_flex_r	arm_add_r	arm_rot_r	elbow_flex_r	pro_sup_r	wrist_flex_r	wrist_dev_r	arm_flex_l	arm_add_l	arm_rot_l	elbow_flex_l	pro_sup_l	wrist_flex_l	wrist_dev_l
     49.53500000	     -7.37149998	     -4.46209208	    -12.85072375	      1.04849269	      0.92798471	      0.43648174	     25.59173036	     -0.67789882	     -5.10181327	     17.53797234	     17.53797234	      6.13798959	      7.58370246	      6.66278025	     13.75062268	     -7.27418002	    -13.30306615	     22.42994359	     22.42994359	     16.04071469	    -15.84276707	      2.50118836	    -10.43140061	      7.48887597	      1.04357159	    -17.32692308	     -9.41858820	     -6.62097649	     37.93389546	     45.69766774	      0.00000000	      0.00000000	     38.48892921	    -25.30461171	    -12.33861945	     83.13178190	     48.70779816	      0.00000000	      0.00000000
     49.55550000	     -7.41690273	     -3.98623442	    -13.10215472	      1.04897053	      0.92755930	      0.44002292	     25.13496810	     -0.76144656	     -5.40738175	     16.10092808	     16.10092808	      5.57825887	      8.55531212	      6.95645231	     13.11295438	     -6.93151831	    -13.83285574	     21.76329287	     21.76329287	     16.14535274	    -15.46057381	      2.39909305	    -10.10702891	      7.11826402	      1.21063332	    -17.13158380	     -9.31170376	     -6.56141472	     38.32487314	     45.68078289	      0.00000000	      0.00000000	     39.33369824	    -25.47034242	    -12.57929453	     84.26658284	     48.74670695	      0.00000000	      0.00000000
     49.57600000	     -7.42825307	     -3.48416140	    -13.32068263	      1.04985379	      0.92683718	      0.44360685	     24.79684237	     -0.97927295	     -5.83039727	     15.29838607	     15.29838607	      4.83021170	      9.52799319	      5.71677885	     12.47904003	     -6.57345443	    -14.41156131	     21.18803960	     21.18803960	     16.02985033	    -15.11453507	      1.45419146	     -9.86124162	      6.80377449	      0.98746685	    -16.98506044	     -9.43801518	     -6.36653963	     39.56231673	     45.62686836	      0.00000000	      0.00000000	     39.34818339	    -25.81713532	    -13.70431115	     86.73003320	     48.84793044	      0.00000000	      0.00000000
     49.59650000	     -7.38285265	     -3.00237492	    -13.52993845	      1.05105076	      0.92623115	      0.44744226	     24.47621755	     -1.14653267	     -5.79286601	     14.97928102	     14.97928102	      4.60529501	      9.66559069	      5.28844129	     11.74583887	     -6.18251728	    -14.82172872	     20.57537249	     20.57537249	     16.14080718	    -14.83364511	      1.30533201	     -9.57012354	      6.50470489	      1.21814458	    -16.67645013	     -9.50782097	     -6.26980937	     39.71725854	     45.61898659	      0.00000000	      0.00000000	     39.95908896	    -25.82016026	    -13.99227359	     87.59584787	     48.88279083	      0.00000000	      0.00000000
     49.61700000	     -7.33477285	     -2.59910831	    -13.70706364	      1.05265474	      0.92549488	      0.45150733	     24.08912981	     -1.24779818	     -5.68795345	     14.73520474	     14.73520474	      3.37539731	      9.46672126	      1.31329647	     10.97918033	     -5.89184072	    -15.24071301	     19.96053686	     19.96053686	     15.88615160	    -14.71083306	      0.14241281	     -9.34756029	      6.32695964	      0.89142109	    -16.07049617	     -9.87219756	     -5.87547495	     39.93802046	     45.60202901	      0.00000000	      0.00000000	     39.48299264	    -26.08764801	    -15.52804945	     89.83109500	     48.99403250	      0.00000000	      0.00000000
     49.63750000	     -7.26071819	     -2.22426048	    -13.86344893	      1.05442957	      0.92502302	      0.45579661	     23.90750840	     -1.36666761	     -5.43830138	     15.19405676	     15.19405676	      3.58757907	      9.13668411	      0.77734508	     10.15117899	     -5.59880967	    -15.55023859	     19.32395172	     19.32395172	     16.01344213	    -14.44707185	      0.15130449	     -9.08970257	      6.16567149	      1.15402161	    -15.76989925	    -10.14597619	     -5.85549686	     39.92268029	     45.60511262	      0.00000000	      0.00000000	     39.84179520	    -26.04055131	    -15.68268835	     90.32204796	     49.01232376	      0.00000000	      0.00000000
     49.65800000	     -7.17323626	     -1.95954905	    -13.97978503	      1.05643472	      0.92473675	      0.46031795	     23.70968909	     -1.38624818	     -5.11726522	     15.81209767	     15.81209767	      3.86232311	      8.62445773	      0.06037352	      9.25026028	     -5.41578034	    -15.83006902	     18.64213278	     18.64213278	     16.09947083	    -14.17501454	      0.14635602	     -8.87517802	      6.15412181	      1.41805959	    -15.51070024	    -10.50512539	     -5.90079874	     39.86042311	     45.61334462	      0.00000000	      0.00000000	     39.90738727	    -25.92125976	    -15.96085840	     90.90073148	     49.03851664	      0.00000000	      0.00000000
     49.67850000	     -7.06688933	     -1.68501014	    -14.08993543	      1.05852841	      0.92459828	      0.46514777	     23.48537818	     -1.35895186	     -4.52156075	     16.43861453	     16.43861453	      4.09949154	      7.67747909	     -1.11898396	      8.24439302	     -5.20675352	    -16.13124019	     17.78874335	     17.78874335	     16.06841882	    -13.81745384	      0.03298653	     -8.70540303	      6.02402999	      1.51062496	    -15.19990692	    -10.78074794	     -5.98048821	     39.67392626	     45.62947713	      0.00000000	      0.00000000	     39.73756040	    -25.81059622	    -16.60927319	     91.81476502	     49.09030751	      0.00000000	      0.00000000
     49.69900000	     -6.96730252	     -1.61971387	    -14.10735291	      1.06067603	      0.92465370	      0.47025625	     23.21249951	     -1.15729724	     -4.09604008	     17.11685627	     17.11685627	      4.51474209	      6.96815414	     -1.88138806	      7.27243533	     -5.25475593	    -16.29080224	     17.07200544	     17.07200544	     16.06540904	    -13.48616947	      0.00670434	     -8.56741219	      6.11297949	      1.51118497	    -15.00963640	    -11.14854540	     -6.09650380	     39.51660525	     45.64495403	      0.00000000	      0.00000000	     39.49369692	    -25.76499278	    -17.01651842	     92.26675544	     49.11967673	      0.00000000	      0.00000000
     49.71950000	     -6.88991842	     -1.64642749	    -14.07498042	      1.06270555	      0.92487250	      0.47564149	     22.82073012	     -0.74969852	     -3.37119131	     17.50217587	     17.50217587	      4.33071376	      5.34932047	     -3.83513368	      6.23034708	     -5.42392883	    -16.59083100	     16.16733103	     16.16733103	     15.72268083	    -13.03244471	     -0.64550561	     -8.48495531	      6.19590706	      0.78602647	    -14.13164037	    -11.55255620	     -6.37901409	     38.59877021	     45.70920078	      0.00000000	      0.00000000	     38.52173084	    -26.01836713	    -18.71372867	     93.82817977	     49.22647732	      0.00000000	      0.00000000
     49.74000000	     -6.77173054	     -1.64638745	    -13.95536238	      1.06473239	      0.92521034	      0.48103862	     22.48297139	     -0.51905586	     -3.15133318	     18.12142616	     18.12142616	      4.96166060	      4.83165574	     -4.12707437	      5.20650535	     -5.54769120	    -16.69082214	     15.36632029	     15.36632029	     15.65779532	    -12.50832199	     -0.50456134	     -8.42376734	      6.27312201	      0.79315267	    -14.09701559	    -11.82186884	     -6.41888819	     38.42349364	     45.71997100	      0.00000000	      0.00000000	     38.31594514	    -25.96386551	    -18.77012152	     93.78699234	     49.22225941	      0.00000000	      0.00000000
     49.76050000	     -6.75090284	     -1.82633170	    -13.73257827	      1.06641446	      0.92553052	      0.48653470	     22.12895680	     -0.09769720	     -3.16067186	     18.55844354	     18.55844354	      5.49858588	      4.36667245	     -4.27873073	      4.43556625	     -5.95717651	    -16.69635980	     14.84892194	     14.84892194	     15.60076093	    -12.09368714	     -0.37957810	     -8.32315396	      6.46561978	      0.66823409	    -14.11870444	    -12.15872282	     -6.50689018	     38.29723037	     45.73073743	      0.00000000	      0.00000000	     38.08653334	    -25.81534198	    -18.79641724	     93.70441497	     49.21779154	      0.00000000	      0.00000000
     49.78100000	     -6.74702769	     -2.00558928	    -13.42238126	      1.06788935	      0.92589994	      0.49204527	     21.74916678	      0.31421455	     -3.27827879	     18.87615319	     18.87615319	      6.03432547	      3.92902435	     -4.38147485	      3.75536312	     -6.40397125	    -16.68117442	     14.40813948	     14.40813948	     15.50016965	    -11.63303696	     -0.24115801	     -8.24876608	      6.61798544	      0.47295944	    -14.15521238	    -12.44962145	     -6.58985222	     38.18593812	     45.74031616	      0.00000000	      0.00000000	     37.83060548	    -25.61895433	    -18.78407432	     93.54209411	     49.20991311	      0.00000000	      0.00000000
     49.80150000	     -6.62273534	     -2.16401038	    -13.14503059	      1.06919872	      0.92662512	      0.49776980	     21.11405449	      0.76862517	     -3.08493265	     18.89715790	     18.89715790	      6.55220571	      3.29234412	     -4.05437721	      2.90452812	     -6.85741288	    -17.03694788	     13.87911583	     13.87911583	     15.44000856	    -10.51915550	     -0.02137287	     -8.32331610	      6.62353187	      0.22660730	    -14.08409863	    -12.65023692	     -6.70543950	     37.89070132	     45.76037193	      0.00000000	      0.00000000	     37.58757869	    -25.44539481	    -18.90460942	     92.94481398	     49.19627921	      0.00000000	      0.00000000
